<svg width="2553" height="533" viewBox="0 0 2553 533" fill="none" xmlns="http://www.w3.org/2000/svg">
<g clip-path="url(#clip0_288_600)">
<path d="M684.747 28.0234C724.692 28.0234 756.025 36.2657 778.929 52.3839C801.833 68.6853 813.377 93.9616 813.377 127.846C813.377 149.093 808.613 167.409 799.085 182.795C789.556 198.18 776.18 210.269 759.323 219.061C742.282 227.853 722.31 232.981 699.039 234.446L691.343 206.423C718.095 207.155 742.099 211.918 763.354 220.709C784.609 229.501 801.467 241.773 813.926 257.525C826.386 273.277 832.616 291.959 832.616 313.572C832.616 333.354 829.135 350.204 821.989 364.308C814.843 378.411 804.948 389.951 792.305 398.925C779.662 407.9 765.553 414.494 749.978 418.707C734.403 422.92 717.912 425.118 700.688 425.118H582.502V28.0234H684.747ZM679.066 201.661C701.054 201.661 716.996 195.616 726.89 183.528C736.785 171.439 741.732 156.786 741.732 139.569C741.732 118.322 735.319 102.936 722.493 93.4121C709.666 83.8877 692.442 79.1255 670.821 79.1255H619.149V201.661H679.066ZM681.265 375.847C696.29 375.847 709.85 373.649 721.943 369.253C734.037 364.857 743.748 358.08 750.894 348.739C758.04 339.398 761.522 328.042 761.522 314.305C761.522 298.919 757.49 286.831 749.245 278.039C740.999 269.247 730.372 262.837 717.545 258.99C704.719 255.144 691.526 253.129 677.967 253.129H619.149V375.664H681.265V375.847Z" fill="#257CFF"/>
<path d="M890.152 0H941.824V425.301H890.152V0Z" fill="#257CFF"/>
<path d="M1072.47 425.301C1051.21 425.301 1033.81 419.074 1020.61 406.253C1007.24 393.614 1000.09 377.313 999.359 357.165V189.023H1051.03V339.032C1051.76 351.121 1055.43 361.195 1062.03 368.888C1068.62 376.764 1078.88 380.976 1092.81 381.343C1105.27 381.343 1116.45 377.496 1126.71 369.987C1136.78 362.477 1144.85 352.22 1151.08 339.215C1157.31 326.211 1160.42 311.375 1160.42 294.89V188.84H1211.54V416.326H1164.82L1160.42 360.279L1163.72 370.719C1158.96 380.976 1152.18 390.317 1143.38 398.377C1134.59 406.619 1124.14 413.213 1111.87 417.975C1099.59 422.737 1086.58 425.118 1072.65 425.118L1072.47 425.301Z" fill="#257CFF"/>
<path d="M1354.28 417.792C1329.91 408.817 1310.67 396.362 1296.57 380.244C1282.64 364.126 1273.84 345.627 1270.36 325.113C1266.88 304.598 1269.26 283.352 1277.14 261.189C1285.02 239.027 1297.12 223.092 1314.34 209.721C1331.56 196.35 1350.8 187.925 1372.42 184.078C1394.05 180.232 1416.03 182.43 1438.02 190.306C1466.24 200.563 1486.76 217.414 1499.22 240.675C1511.68 263.937 1516.26 291.228 1512.6 322.731L1313.42 320.534L1312.32 287.931L1475.77 287.198L1463.31 290.861C1463.31 278.04 1460.01 265.585 1453.41 253.863C1446.82 242.14 1435.64 233.349 1420.25 227.671C1407.24 222.908 1394.41 221.809 1381.95 224.374C1369.49 226.938 1358.5 232.433 1348.6 241.225C1338.71 250.016 1331.2 261.556 1326.07 276.025C1320.94 290.495 1319.1 304.415 1320.94 317.969C1322.77 331.523 1328.08 343.429 1336.51 353.686C1344.94 363.943 1356.12 371.636 1370.04 376.581C1379.39 379.878 1388.92 381.526 1398.99 381.343C1409.07 381.16 1418.97 379.695 1428.86 376.947L1437.66 420.54C1424.28 423.837 1410.17 425.485 1395.33 425.119C1380.49 424.752 1366.56 422.188 1353.92 417.609L1354.28 417.792Z" fill="#257CFF"/>
<path d="M1600.92 97.8086H1653.14V198.914H1715.26V239.026H1653.14V425.301H1600.92V239.026H1559.69V198.914H1600.92V97.8086Z" fill="#257CFF"/>
<path d="M1875.03 425.301C1853.78 425.301 1834.54 420.722 1816.95 411.564C1799.36 402.406 1785.62 389.035 1775.54 371.085C1765.28 353.319 1760.15 331.522 1760.15 306.063C1760.15 280.604 1765.46 258.441 1776.09 240.125C1786.72 221.809 1801.01 207.705 1818.96 197.815C1836.92 187.924 1856.53 182.979 1877.78 182.979C1899.04 182.979 1916.99 187.924 1932.02 197.631C1946.86 207.339 1958.04 218.695 1965.19 232.066L1961.89 240.308L1966.83 192.503H2014.11V419.99H1962.99V360.645L1969.03 373.833C1967.2 377.496 1963.72 382.258 1958.59 387.936C1953.46 393.614 1946.86 399.292 1938.98 405.153C1931.1 411.015 1921.94 415.777 1911.31 419.623C1900.69 423.47 1888.59 425.484 1875.03 425.484V425.301ZM1888.78 382.991C1901.6 382.991 1913.15 380.61 1923.41 375.848C1933.67 371.085 1942.1 364.308 1948.88 355.517C1955.66 346.725 1960.24 336.468 1962.99 324.746V280.237C1960.05 269.248 1954.92 259.723 1947.59 251.298C1940.27 243.056 1931.47 236.645 1921.21 232.066C1910.95 227.487 1899.77 225.106 1887.68 225.106C1873.75 225.106 1861.11 228.403 1849.75 234.996C1838.39 241.59 1829.23 250.748 1822.63 262.471C1815.85 274.193 1812.37 287.93 1812.37 303.682C1812.37 318.335 1815.85 331.706 1822.81 343.794C1829.78 355.883 1839.12 365.407 1850.85 372.368C1862.57 379.328 1875.22 382.808 1888.78 382.808V382.991Z" fill="#257CFF"/>
<path d="M2201.74 533C2184.88 533 2169.86 530.985 2156.85 526.956C2143.84 522.926 2132.11 517.431 2121.67 510.471C2111.22 503.511 2101.15 495.818 2091.07 487.393L2121.3 452.226C2133.4 463.216 2145.67 471.824 2158.13 478.052C2170.59 484.279 2184.52 487.393 2199.91 487.393C2217.13 487.393 2231.61 484.462 2243.52 478.967C2255.43 473.289 2264.41 465.597 2270.45 455.706C2276.5 445.815 2279.62 434.276 2280.17 421.088L2280.72 359.546L2285.11 369.437C2278.52 385.189 2266.61 398.376 2249.38 409.183C2232.16 419.99 2211.27 425.301 2186.72 425.301C2166.19 425.301 2147.14 419.99 2129.55 409.366C2111.96 398.743 2097.85 384.273 2087.22 366.323C2076.59 348.19 2071.28 327.676 2071.28 304.964C2071.28 282.252 2076.78 260.09 2087.77 241.773C2098.76 223.457 2113.42 209.171 2131.38 198.73C2149.52 188.29 2169.31 182.979 2190.56 182.979C2210.72 182.979 2229.04 187.191 2245.72 195.434C2262.39 203.676 2274.67 214.116 2282.91 226.937L2279.62 236.279L2284.56 192.32H2331.84V421.455C2331.84 441.969 2326.52 460.651 2316.08 477.502C2305.64 494.353 2290.61 507.907 2271 517.981C2251.4 528.055 2228.31 533.183 2201.56 533.183L2201.74 533ZM2123.13 303.865C2123.13 318.518 2126.8 331.889 2133.76 343.977C2140.91 356.066 2150.44 365.591 2162.35 372.551C2174.26 379.511 2187.27 382.991 2201.56 382.991C2215.85 382.991 2227.39 380.427 2238.21 375.481C2249.02 370.536 2257.99 363.576 2265.51 354.967C2272.84 346.175 2277.97 336.468 2280.9 325.845V280.237C2277.6 269.248 2272.1 259.723 2264.41 251.664C2256.71 243.605 2247.55 237.194 2236.92 232.432C2226.3 227.67 2214.57 225.289 2201.74 225.289C2187.45 225.289 2174.26 228.586 2162.53 235.363C2150.62 242.14 2141.09 251.481 2133.95 263.203C2126.8 274.926 2123.32 288.48 2123.32 303.865H2123.13Z" fill="#257CFF"/>
<path d="M2464.5 425.301C2448.38 425.301 2432.62 422.37 2417.59 416.692C2402.38 411.014 2389.74 402.589 2379.85 391.233L2401.28 361.561C2411.18 370.719 2421.07 377.679 2430.97 382.075C2440.86 386.471 2450.76 389.035 2460.65 389.035C2467.98 389.035 2474.76 388.119 2480.99 386.288C2487.22 384.456 2492.17 381.342 2496.02 376.946C2499.86 372.55 2501.88 366.872 2501.88 359.912C2501.88 351.487 2499.13 345.076 2494 340.314C2488.69 335.735 2481.91 332.072 2473.84 329.141C2465.78 326.211 2456.99 323.463 2447.46 320.899C2428.77 314.671 2414.48 306.063 2404.58 295.073C2394.69 284.083 2389.74 270.713 2389.74 254.961C2389.74 242.872 2392.86 231.699 2398.9 221.259C2404.95 210.819 2414.11 202.21 2426.2 195.433C2438.3 188.656 2452.96 185.359 2470.18 185.359C2485.94 185.359 2500.05 187.191 2512.51 191.037C2524.97 194.884 2536.69 201.478 2547.69 210.636L2527.35 242.506C2520.75 235.546 2512.87 230.234 2504.08 226.754C2495.1 223.274 2486.85 221.442 2479.71 221.442C2473.11 221.442 2466.88 222.541 2461.2 224.556C2455.52 226.571 2450.94 229.501 2447.46 233.348C2443.98 237.194 2442.33 242.139 2442.33 247.817C2441.96 255.51 2444.34 261.555 2449.66 266.134C2454.97 270.713 2461.75 274.559 2469.81 277.49C2477.88 280.42 2486.12 283.351 2494.55 286.281C2505.54 289.578 2515.44 293.974 2524.23 299.469C2533.03 304.964 2539.99 311.741 2545.49 319.8C2550.8 327.859 2553.37 337.933 2553.37 350.022C2553.37 363.576 2550.07 376.031 2543.66 387.57C2537.24 399.109 2527.53 408.267 2514.52 415.044C2501.51 421.821 2484.84 425.301 2464.87 425.301H2464.5Z" fill="#257CFF"/>
<path d="M310.398 378.595C248.099 316.32 248.099 215.581 310.398 153.306L159.23 2.38086L0 161.548L263.857 425.301L310.398 378.778V378.595Z" fill="#257CFF"/>
</g>
<defs>
<clipPath id="clip0_288_600">
<rect width="2553" height="533" fill="white"/>
</clipPath>
</defs>
</svg>
